PathFileType	4	(X/Y/Z)	Patient4_TMGait_0pt4_02_right_39.trc.trc
DataRate	CameraRate	NumFrames	NumMarkers	Units	OrigDataRate	OrigDataStartFrame	OrigNumFrames
76.086956521739	76.086956521739	4	33	mm	76.086956521739	89	       141
Frame#	Time	Sacral			L.Shoulder			Chest			R.Shoulder			Neck			R.ASIS			L.ASIS			R.Thigh.Superior			R.Thigh.Lateral			R.Thigh.Inferior			R.Patella			L.Thigh.Superior			L.Thigh.Lateral			L.Thigh.Inferior			L.Patella			L.Shank.Superior			L.Shank.Lateral			L.Shank.Inferior			R.Shank.Superior			R.Shank.Lateral			R.Shank.Inferior			R.Heel			R.Midfoot.Superior			R.Midfoot.Lateral			R.Toe			L.Heel			L.Midfoot.Lateral			L.Midfoot.Superior			L.Toe			L.Elbow			L.Wrist			R.Elbow			R.Wrist			
		X1	Y1	Z1	X2	Y2	Z2	X3	Y3	Z3	X4	Y4	Z4	X5	Y5	Z5	X6	Y6	Z6	X7	Y7	Z7	X8	Y8	Z8	X9	Y9	Z9	X10	Y10	Z10	X11	Y11	Z11	X12	Y12	Z12	X13	Y13	Z13	X14	Y14	Z14	X15	Y15	Z15	X16	Y16	Z16	X17	Y17	Z17	X18	Y18	Z18	X19	Y19	Z19	X20	Y20	Z20	X21	Y21	Z21	X22	Y22	Z22	X23	Y23	Z23	X24	Y24	Z24	X25	Y25	Z25	X26	Y26	Z26	X27	Y27	Z27	X28	Y28	Z28	X29	Y29	Z29	X30	Y30	Z30	X31	Y31	Z31	X32	Y32	Z32	X33	Y33	Z33	

89	52.606571428571	838.172485910977	1003.869864254774	493.185899206186	984.297933996790	1431.141331443625	291.565261167576	1110.868620118595	1364.992962899110	435.877600795935	1053.922144703349	1438.116102304683	620.283701301062	988.379533717997	1493.653563038177	450.010076807764	1076.748997450477	934.381836279807	579.312575030233	1032.042604135264	965.372364204855	309.052913136134	1101.484427069316	727.637638264685	554.021763805244	1022.551477158593	623.687881717908	630.939478759368	1091.160885675988	560.822159652304	549.849371838395	1082.713596285514	457.333312357583	571.529981505465	1098.370548124079	761.173907126729	329.885568041024	1014.715921693571	639.054845095766	275.522211131899	1110.146644395697	567.068390802221	328.502105667236	1116.296094527851	497.073064885254	336.050451959294	1090.967441255689	423.728308639713	328.435776015775	1002.186641835476	307.689088994817	279.227123380873	1060.829104243652	195.904592258384	344.136139929916	1013.715150881917	387.184292160115	584.698771948355	905.331703333555	332.812371734605	656.471901294604	898.711929383035	223.513315976284	604.900683171610	705.907448374287	121.501609392131	591.684032831958	883.699998879802	110.977061862511	624.437818636062	781.477790626437	83.297868348651	663.579189732491	976.531023446243	34.612850703488	651.871533003983	940.817968798088	38.964066195620	390.178791694873	1011.006181737985	35.657729947685	306.178823580710	1095.187167402209	97.039465155547	329.996866110813	1222.583772164575	44.742528351281	295.580582893706	933.769264034406	1084.747924355108	168.275229086676	1037.614069488759	843.824269884933	139.342240164623	1115.494851003063	1086.068054296202	715.358298407887	1287.110898524482	943.470343707818	585.897924152211	
90	52.619714285714	837.921671580841	1003.661985201828	489.152853292515	985.036944110491	1431.426037910503	288.145862922189	1110.350545744276	1365.476148426076	433.590388966738	1051.620264187911	1438.265000986775	617.562210421568	987.608765918422	1493.844706595016	446.746713474737	1075.980325075210	934.728453650135	577.098882423108	1033.263015289643	965.350279458872	306.515236105191	1106.223591272792	729.811443716891	551.801434334490	1029.858303405742	624.147539466439	628.479765798982	1100.658162684955	562.557442676368	547.800414285502	1093.433674029090	457.738054688379	570.158309692351	1098.133658717055	760.262127560462	326.892457420202	1013.192436246951	638.827764308384	273.101626075349	1108.000072010833	566.238580768973	326.172537204527	1113.594634270231	496.318516832628	334.035193604983	1087.939653841760	422.986417651021	326.746648545834	998.570417525582	307.258629179877	277.956737458998	1056.421393938954	195.467854887768	343.461967779919	1022.397263763238	388.225991453193	583.241969447763	911.895743915588	337.802339101063	654.715878968458	902.612382758322	228.265297583842	604.198192841191	706.829931675881	134.012753099967	590.872077295063	883.912120065759	114.841752523566	623.953219945992	780.270571363142	92.319734540409	662.987762574416	972.168974674398	33.916879254697	651.685224652826	935.480209551177	38.942357927594	390.068191186913	1005.641002144033	35.530167964492	306.031143819164	1089.886116828270	96.817708695293	329.844040643142	1217.305704255473	44.357856779401	295.469532951515	935.682541875016	1085.302004806346	163.676371138041	1041.654725027554	845.157714946247	135.961287395882	1109.971817439696	1085.956337104065	714.068481368785	1276.453087287514	932.820646548959	589.134523016719	
91	52.632857142857	837.485532612234	1003.440119641563	485.277146752191	985.869521489813	1431.611816616409	284.867883731930	1109.823717091489	1365.852854092177	431.517272784522	1049.255058169025	1438.351577687404	615.011743822039	986.881201538853	1493.992325087981	443.594960496571	1075.020779244352	935.070101935024	575.101564068889	1034.367005870668	965.323345062094	304.195497781508	1110.994933880404	732.275471065962	549.774896635064	1037.295187155645	624.872915762356	626.147665845839	1110.326971158997	564.721584107137	545.918689674817	1104.410925773677	458.681158248120	568.699164069671	1097.679013476281	759.345970094885	324.458954971033	1011.705968139867	638.655402606023	270.847664004868	1105.702133601339	565.439521993661	324.261777909784	1110.684428082111	495.560722289294	332.329565716798	1084.741997928652	422.275746349309	325.264230175839	994.874535907598	306.839730824146	276.814268255167	1051.969646748536	195.053472927789	342.884849849354	1031.516984050232	389.644208690029	581.684304377572	919.090682082497	343.062217558985	652.866800867093	907.119442843670	233.417167785698	603.307979164342	708.704233149584	146.992356706367	589.856111944345	884.783445905490	119.336160268059	623.269213416329	779.911752410487	101.956640719902	662.206053660639	968.419641963918	33.372553131823	651.335376659817	930.138650033247	38.924465213458	389.955973986487	1000.280110011091	35.421821130195	305.892557127059	1084.588746271197	96.601346797945	329.721637087630	1212.024084386174	43.986137854057	295.380304451487	937.765654708455	1085.800771729158	159.100103922604	1045.777001681912	846.426231701548	132.592022828264	1103.870936549064	1085.735339900651	713.028527666944	1265.167541439913	922.544934478315	593.258406653730	
92	52.646000000000	836.860935194069	1003.252191774517	481.572123151718	986.774048866139	1431.735527644014	281.762854216929	1109.291603307939	1366.153089238331	429.665197152062	1046.865199842109	1438.421388063950	612.640965471535	986.213149181586	1494.134441520105	440.576717409976	1073.885282788130	935.473215054039	573.304450267161	1035.335664365324	965.332801730747	302.083263176927	1115.638790332120	735.051239787505	547.912899705452	1044.702073864898	625.931163841935	623.975393282537	1119.963235534959	567.365145156168	544.227062868564	1115.495610187040	460.216674991506	567.219357767377	1097.033085248304	758.470751489089	322.545070795677	1010.220860608996	638.542860776378	268.800969708852	1103.253966193476	564.681107503871	322.746468883368	1107.580061497485	494.822851964219	330.956415933488	1081.388733397659	421.620473547407	324.015428494301	991.111817576062	306.460085660495	275.815374521191	1047.479226347766	194.677080544644	342.414700115224	1040.953338981449	391.480873981078	580.082087416651	926.812090013254	348.511443481395	650.967620875023	912.229081813521	238.871264908648	602.255944451641	711.580039177530	160.039536889400	588.660674515686	886.444999544648	124.353531252480	622.401012940748	780.551983900469	111.881842638562	661.225377005738	965.566886855726	33.087463517678	650.759645214997	924.805661734598	38.915788289065	389.838824496832	994.936176878964	35.340431074738	305.760958951402	1079.303673402919	96.407220356057	329.622496794180	1206.748150584777	43.648957012182	295.301373405364	940.084351906718	1086.264406496312	154.595619765117	1049.988411119036	847.625863350128	129.271374739747	1097.137744684392	1085.459736107749	712.266650308828	1253.255005533835	912.734097979240	598.320141757891	
